# xmcd CD database file
#
# Track frame offsets:
#	150
#	8050
#	30289
#	57351
#	74316
#	98205
#
# Disc length: 1400 seconds
#
# Revision: 0
# Processed by: cddbd v1.5PL3 Copyright (c) Steve Scherf et al.
# Submitted via: CDex 1.51
#
DISCID=41057606
DTITLE=不知火-HIDEKI - Recorded At Shiranui Studio
DYEAR=1900
DGENRE=Hard Rock
TTITLE0=Adagio
TTITLE1=Black Star
TTITLE2=Far Byond The Sun
TTITLE3=Tears Of Sahara
TTITLE4=Love In Her Eyes
TTITLE5=Bourree
EXTD=
EXTT0=
EXTT1=
EXTT2=
EXTT3=
EXTT4=
EXTT5=
PLAYORDER=
